<svg width="525" height="90" viewBox="0 0 525 90" fill="none" xmlns="http://www.w3.org/2000/svg">
<path d="M35.4219 61.5703C33.5859 62.8594 31.8672 64.3828 30.2656 66.1406C29.875 66.5703 29.0547 67.9375 27.8047 70.2422C26.9453 71.8047 26.4766 73.6016 26.3984 75.6328C26.3594 76.2969 26.4961 77.0195 26.8086 77.8008C26.9258 78.0352 27.1797 78.3477 27.5703 78.7383C27.9219 79.1289 28.1562 79.4414 28.2734 79.6758C28.4297 80.0273 28.7617 80.2031 29.2695 80.2031C30.2852 80.1641 31.5547 79.9492 33.0781 79.5586C34.3672 79.207 35.3242 78.4258 35.9492 77.2148C38.0586 72.8398 38.9961 68.4844 38.7617 64.1484C38.6836 62.7422 38.4102 61.3164 37.9414 59.8711C38.1758 59.6758 37.3359 60.2422 35.4219 61.5703ZM18.7812 30.2227C21.0469 23.9336 24.3867 17.8203 28.8008 11.8828C30.832 9.14844 33.2539 7.39062 36.0664 6.60938C38.1758 6.0625 40.3047 5.92578 42.4531 6.19922C44.8359 6.51172 46.6523 7.66406 47.9023 9.65625C48.4492 10.5156 48.8594 11.4336 49.1328 12.4102C49.0938 12.293 49.4648 13.1914 50.2461 15.1055C50.7148 16.3945 50.9297 17.9766 50.8906 19.8516C50.8516 20.7109 50.5977 21.9609 50.1289 23.6016C49.8164 24.6953 49.6211 25.75 49.543 26.7656C49.4258 28.0937 49.1328 29.3633 48.6641 30.5742C48.3125 31.4727 47.8047 32.6055 47.1406 33.9727C46.0859 36.1211 44.4844 38.25 42.3359 40.3594C41.0078 41.6875 40.5 42.1562 40.8125 41.7656C40.7344 41.8828 40.5977 41.9805 40.4023 42.0586C39.3867 42.4883 38.293 43.3086 37.1211 44.5195C37.0039 44.6367 36.8086 44.7539 36.5352 44.8711C36.2227 45.0273 36.0078 45.1445 35.8906 45.2227C35.4219 45.5742 35.3828 45.9648 35.7734 46.3945C37.1016 47.8398 38.2734 48.9922 39.2891 49.8516C39.6797 50.1641 40.5391 51.1406 41.8672 52.7812C42.1797 53.1719 42.5508 53.2695 42.9805 53.0742C44.9336 52.0586 46.9453 51.2188 49.0156 50.5547C51.2031 49.8906 53.3516 49.4805 55.4609 49.3242C56.8281 49.2461 58.5469 49.4609 60.6172 49.9688C61.125 50.0859 61.9453 50.5938 63.0781 51.4922C63.3516 51.6875 63.4492 51.8438 63.3711 51.9609C63.1367 52.3516 63.2734 52.7617 63.7812 53.1914C63.5078 53.3477 63.1562 53.3477 62.7266 53.1914C61.8672 52.8789 61.2031 52.918 60.7344 53.3086C60.6953 53.3477 60.207 53.3867 59.2695 53.4258C59.1523 53.4258 59.0742 53.3672 59.0352 53.25C58.957 52.8203 58.4492 52.5664 57.5117 52.4883C56.2617 52.332 54.8359 52.4688 53.2344 52.8984C50.9688 53.4844 48.5273 54.4414 45.9102 55.7695C45.832 55.8086 45.5781 55.9648 45.1484 56.2383C44.875 56.4336 44.8164 56.668 44.9727 56.9414C45.0117 57.0195 45.6758 58.582 46.9648 61.6289C48.0195 64.168 48.5469 66.9609 48.5469 70.0078C48.5469 72.7812 48.2344 75.3398 47.6094 77.6836C46.9844 79.9492 46.1055 81.9414 44.9727 83.6602C44.1523 84.9883 42.9023 86.082 41.2227 86.9414C41.0664 87.0195 40.8711 87.0195 40.6367 86.9414C39.3477 86.5508 38.4688 86.4141 38 86.5312C37.9219 86.5703 37.8242 86.5508 37.707 86.4727C36.9258 86.043 35.9297 85.9844 34.7188 86.2969C34.0547 86.4922 33.5078 86.4531 33.0781 86.1797C32.9219 86.1016 32.7266 86.0625 32.4922 86.0625C31.4375 86.1406 30.4805 85.9062 29.6211 85.3594C28.6445 84.7344 27.668 84.2461 26.6914 83.8945C27.2383 84.0898 26.2422 83.4844 23.7031 82.0781C23.5469 82 23.3711 81.7656 23.1758 81.375C22.9414 80.9062 22.7852 80.6133 22.707 80.4961C22.3164 80.0273 22.1797 79.4609 22.2969 78.7969C22.375 78.4453 22.4531 77.8789 22.5312 77.0977C22.6094 76.3164 22.6875 75.7305 22.7656 75.3398C23.2344 72.6836 24.3281 70.1055 26.0469 67.6055C28.9766 63.2305 32.4141 59.6758 36.3594 56.9414C36.7109 56.707 36.7891 56.375 36.5938 55.9453C35.6953 54.1094 34.8164 52.6836 33.957 51.668C32.1602 49.5195 30.5391 47.9375 29.0938 46.9219C28.625 46.6094 28.0391 46.082 27.3359 45.3398C26.0469 44.0508 25.6172 42.3906 26.0469 40.3594C26.3203 38.9141 26.9844 37.7617 28.0391 36.9023C29.5234 35.6523 31.5352 33.4062 34.0742 30.1641C35.832 27.8594 37.0234 26.0234 37.6484 24.6562C39.3672 20.7891 40.4219 18.1523 40.8125 16.7461C41.2422 15.3008 41.3203 13.8945 41.0469 12.5273C40.9297 11.9414 40.6562 11.375 40.2266 10.8281C39.6406 10.125 38.8984 9.83203 38 9.94922C36.8281 10.0664 35.832 10.5156 35.0117 11.2969C32.9023 13.2891 30.4805 16.5508 27.7461 21.082C27.5508 21.3555 27.2188 21.8242 26.75 22.4883C26.3203 23.1133 25.9883 23.6211 25.7539 24.0117C24.4648 26.2773 23.5469 28.5234 23 30.75C22.8438 31.4922 22.5508 32.5664 22.1211 33.9727C21.6914 35.3789 21.3789 36.4336 21.1836 37.1367C20.0898 41.707 19.582 43.7578 19.6602 43.2891C19.3477 44.8906 19.0352 46.2383 18.7227 47.332C18.5273 47.918 18.1367 50.0469 17.5508 53.7188C17.5508 53.9141 17.5312 54.2852 17.4922 54.832C17.4922 55.1445 17.5117 55.3203 17.5508 55.3594C17.8242 55.5156 17.9219 56.043 17.8438 56.9414C17.6875 59.207 17.6484 60.9844 17.7266 62.2734C17.7656 62.7031 17.7461 63.2695 17.668 63.9727C17.6289 64.832 17.6094 65.418 17.6094 65.7305C17.6094 66.5898 17.2383 67.6836 16.4961 69.0117C16.0664 69.7148 15.9297 70.418 16.0859 71.1211C16.2422 71.668 16.2422 72.1953 16.0859 72.7031C16.0078 72.9766 16.0273 73.3477 16.1445 73.8164C16.2617 74.4414 16.3594 75.7109 16.4375 77.625C16.4375 78.2109 16.0859 78.5625 15.3828 78.6797C15.1484 78.7188 14.5625 78.8945 13.625 79.207C13.3906 79.2852 13.2539 79.5195 13.2148 79.9102C13.1758 80.418 12.7656 80.9258 11.9844 81.4336C11.7891 81.5508 11.5938 81.5703 11.3984 81.4922C11.0078 81.3359 10.5 81.4141 9.875 81.7266C9.44531 81.9219 8.78125 82.1562 7.88281 82.4297C7.57031 82.5078 6.90625 82.2539 5.89062 81.668C5.73438 81.5898 5.36328 81.2773 4.77734 80.7305C4.30859 80.3008 4.01562 79.793 3.89844 79.207C2.60938 71.9414 1.96484 68.3672 1.96484 68.4844C2.08203 69.1484 2.00391 67.8398 1.73047 64.5586C1.33984 60.0664 1.06641 53.8945 0.910156 46.043C0.910156 45.9648 1.02734 42.4102 1.26172 35.3789C1.45703 28.3867 1.55469 25.3594 1.55469 26.2969C1.55469 23.7188 1.63281 19.9883 1.78906 15.1055C1.86719 11.9414 1.69141 9.30469 1.26172 7.19531C1.02734 6.02344 0.792969 5.22266 0.558594 4.79297C0.441406 4.59766 0.460938 4.38281 0.617188 4.14844C0.929688 3.67969 1.06641 3.13281 1.02734 2.50781C0.988281 2.15625 1.24219 1.78516 1.78906 1.39453C2.10156 1.16016 2.58984 1.00391 3.25391 0.925781C3.91797 0.847656 4.40625 0.710937 4.71875 0.515625C4.79688 0.476562 4.95312 0.476562 5.1875 0.515625C6.00781 0.75 6.67188 0.867188 7.17969 0.867188C7.53125 0.828125 7.88281 0.984375 8.23438 1.33594C9.40625 2.46875 10.5977 3.21094 11.8086 3.5625C12.1602 3.67969 12.5508 3.93359 12.9805 4.32422C13.2148 4.51953 13.5859 4.85156 14.0938 5.32031C14.5625 5.78906 14.9336 6.14062 15.207 6.375C15.6758 6.80469 15.9688 7.15625 16.0859 7.42969C16.1641 7.625 16.3398 7.82031 16.6133 8.01562C16.6914 8.09375 16.7891 8.19141 16.9062 8.30859C17.0625 8.42578 17.1602 8.50391 17.1992 8.54297C18.3711 9.44141 18.9375 10.6719 18.8984 12.2344C18.8594 12.7422 18.8594 13.0547 18.8984 13.1719C18.9766 13.4062 18.957 14.5586 18.8398 16.6289C18.8398 16.5898 18.7617 17.2539 18.6055 18.6211C18.5664 19.3242 18.5078 19.793 18.4297 20.0273C18.1953 21.0039 18.0977 21.7266 18.1367 22.1953C18.1758 22.5859 18.1172 22.9766 17.9609 23.3672C17.6484 24.1094 17.4141 25.7305 17.2578 28.2305C16.9844 31.9414 16.8477 33.7383 16.8477 33.6211C16.8477 33.6602 16.8672 34.0312 16.9062 34.7344C16.8281 34.6953 16.9062 34.7148 17.1406 34.793C18.2344 31.8242 18.7812 30.3008 18.7812 30.2227ZM70.8125 64.9688C72.2578 62.7422 73.332 60.6133 74.0352 58.582C74.4258 57.4102 74.875 55.4961 75.3828 52.8398C75.9688 49.6758 76.125 46.9805 75.8516 44.7539C75.7734 44.0508 75.6562 43.582 75.5 43.3477C74.3672 44.4023 73.5664 45.457 73.0977 46.5117C71.8477 49.4414 71.0078 52.2734 70.5781 55.0078C70.1484 57.8984 70.0703 60.3984 70.3438 62.5078L70.5781 65.0859C70.7344 65.0078 70.8125 64.9688 70.8125 64.9688ZM55.5195 52.4883C56.3789 48.3086 56.8867 46.0234 57.043 45.6328C57.8633 43.6016 58.7617 42.1562 59.7383 41.2969C59.7773 41.2578 59.9141 41.0625 60.1484 40.7109C60.8906 39.4609 61.8867 38.6211 63.1367 38.1914C66.5742 36.9805 69.7969 36.5703 72.8047 36.9609C73.6641 37.0781 74.543 37.3711 75.4414 37.8398C76.1836 38.2305 76.6133 38.7578 76.7305 39.4219C76.7695 39.8906 77.0234 40.125 77.4922 40.125C78.2734 40.2031 78.957 40.6328 79.543 41.4141C79.8164 41.7266 79.9922 41.9023 80.0703 41.9414C80.5 42.1758 80.7734 42.7031 80.8906 43.5234C81.125 45.2031 81.0078 46.6094 80.5391 47.7422C80.4609 47.8984 80.1875 49.0117 79.7188 51.082C79.4062 52.3711 78.9375 53.9336 78.3125 55.7695C78.4688 55.3398 78.1562 55.9648 77.375 57.6445C77.1016 58.1914 76.8281 58.9336 76.5547 59.8711C76.2031 60.9648 75.9492 61.707 75.793 62.0977C75.6758 62.332 75.0898 63.4258 74.0352 65.3789C72.5117 68.0742 71.6523 69.8516 71.457 70.7109C71.457 70.6328 71.457 70.9844 71.457 71.7656C71.4961 73.8359 72.2969 76.0039 73.8594 78.2695C74.9922 79.9102 75.6953 80.8867 75.9688 81.1992C76.1641 81.4336 76.3008 81.5898 76.3789 81.668C77.2383 82.4102 78.0586 82.3906 78.8398 81.6094C81.6523 78.6797 85.5391 71.4141 90.5 59.8125C92.0234 56.2188 93.5859 52.332 95.1875 48.1523C96.7109 44.2852 97.3945 42.5078 97.2383 42.8203C97.5898 42.0781 97.9805 41.6875 98.4102 41.6484C99.7383 41.6094 100.324 41.9023 100.168 42.5273C95.7148 59.2461 89.3477 73.6211 81.0664 85.6523C81.0664 85.6914 80.2266 86.4336 78.5469 87.8789C77.9219 88.4258 76.9062 88.875 75.5 89.2266C75.2266 89.3047 74.5039 89.4023 73.332 89.5195C72.2773 89.6367 71.2812 89.5 70.3438 89.1094C68.3125 88.2109 66.5156 86.9805 64.9531 85.418C62.1797 82.6836 59.9141 79.5781 58.1562 76.1016C57.1406 74.1484 56.3594 71.5703 55.8125 68.3672C55.5781 66.9219 55.3633 63.9727 55.168 59.5195C55.4023 54.8711 55.5195 52.5273 55.5195 52.4883ZM104.211 64.9688C105.656 62.7422 106.73 60.6133 107.434 58.582C107.824 57.4102 108.273 55.4961 108.781 52.8398C109.367 49.6758 109.523 46.9805 109.25 44.7539C109.172 44.0508 109.055 43.582 108.898 43.3477C107.766 44.4023 106.965 45.457 106.496 46.5117C105.246 49.4414 104.406 52.2734 103.977 55.0078C103.547 57.8984 103.469 60.3984 103.742 62.5078L103.977 65.0859C104.133 65.0078 104.211 64.9688 104.211 64.9688ZM88.918 52.4883C89.7773 48.3086 90.2852 46.0234 90.4414 45.6328C91.2617 43.6016 92.1602 42.1562 93.1367 41.2969C93.1758 41.2578 93.3125 41.0625 93.5469 40.7109C94.2891 39.4609 95.2852 38.6211 96.5352 38.1914C99.9727 36.9805 103.195 36.5703 106.203 36.9609C107.062 37.0781 107.941 37.3711 108.84 37.8398C109.582 38.2305 110.012 38.7578 110.129 39.4219C110.168 39.8906 110.422 40.125 110.891 40.125C111.672 40.2031 112.355 40.6328 112.941 41.4141C113.215 41.7266 113.391 41.9023 113.469 41.9414C113.898 42.1758 114.172 42.7031 114.289 43.5234C114.523 45.2031 114.406 46.6094 113.938 47.7422C113.859 47.8984 113.586 49.0117 113.117 51.082C112.805 52.3711 112.336 53.9336 111.711 55.7695C111.867 55.3398 111.555 55.9648 110.773 57.6445C110.5 58.1914 110.227 58.9336 109.953 59.8711C109.602 60.9648 109.348 61.707 109.191 62.0977C109.074 62.332 108.488 63.4258 107.434 65.3789C105.91 68.0742 105.051 69.8516 104.855 70.7109C104.855 70.6328 104.855 70.9844 104.855 71.7656C104.895 73.8359 105.695 76.0039 107.258 78.2695C108.391 79.9102 109.094 80.8867 109.367 81.1992C109.562 81.4336 109.699 81.5898 109.777 81.668C110.637 82.4102 111.457 82.3906 112.238 81.6094C115.051 78.6797 118.938 71.4141 123.898 59.8125C125.422 56.2188 126.984 52.332 128.586 48.1523C130.109 44.2852 130.793 42.5078 130.637 42.8203C130.988 42.0781 131.379 41.6875 131.809 41.6484C133.137 41.6094 133.723 41.9023 133.566 42.5273C129.113 59.2461 122.746 73.6211 114.465 85.6523C114.465 85.6914 113.625 86.4336 111.945 87.8789C111.32 88.4258 110.305 88.875 108.898 89.2266C108.625 89.3047 107.902 89.4023 106.73 89.5195C105.676 89.6367 104.68 89.5 103.742 89.1094C101.711 88.2109 99.9141 86.9805 98.3516 85.418C95.5781 82.6836 93.3125 79.5781 91.5547 76.1016C90.5391 74.1484 89.7578 71.5703 89.2109 68.3672C88.9766 66.9219 88.7617 63.9727 88.5664 59.5195C88.8008 54.8711 88.918 52.5273 88.918 52.4883ZM132.395 67.7227C132.043 68.3867 131.867 68.7383 131.867 68.7773C131.32 69.6758 130.441 71.8633 129.23 75.3398C129.113 75.7695 129.035 76.3555 128.996 77.0977C128.996 77.8398 128.977 78.3477 128.938 78.6211C128.703 79.6367 128.645 80.7109 128.762 81.8438C128.762 82.3125 128.977 82.5273 129.406 82.4883C129.836 82.4492 130.285 82.3906 130.754 82.3125C132.043 82.0781 132.766 81.2969 132.922 79.9688C132.922 79.9297 132.922 79.7344 132.922 79.3828C132.922 80.2812 132.844 76.9414 132.688 69.3633C132.688 69.3242 132.648 68.7773 132.57 67.7227C132.844 67.7617 132.785 67.7617 132.395 67.7227ZM142.004 80.3203C142.043 80.1641 142.004 80.0664 141.887 80.0273C141.887 79.9883 141.711 80.1445 141.359 80.4961C141.125 80.7305 140.734 81.4531 140.188 82.6641C140.109 82.8984 139.895 83.1914 139.543 83.543C139.23 83.8945 139.016 84.1875 138.898 84.4219C138.977 84.1484 139.133 83.7578 139.367 83.25C139.562 82.7422 139.699 82.3516 139.777 82.0781C139.582 81.9609 139.426 82 139.309 82.1953C138.566 83.1719 137.863 83.8359 137.199 84.1875C137.121 84.2656 137.062 84.3242 137.023 84.3633C137.023 84.4023 136.418 84.8906 135.207 85.8281C134.895 86.0234 134.543 86.082 134.152 86.0039C133.605 85.8867 133 85.9648 132.336 86.2383C131.945 86.3945 131.398 86.4531 130.695 86.4141C130.227 86.375 129.387 86.043 128.176 85.418C127.238 84.9102 126.672 83.9922 126.477 82.6641C126.203 80.6328 126.184 78.6211 126.418 76.6289C126.77 73.1133 127.727 69.9688 129.289 67.1953C130.109 65.7109 130.891 64.5 131.633 63.5625C131.945 63.1328 132.043 62.6641 131.926 62.1562C131.301 59.5781 130.402 56.9805 129.23 54.3633C128.996 53.7773 128.371 52.4102 127.355 50.2617C125.988 47.293 125.148 44.5391 124.836 42C124.406 38.0547 125.051 34.6758 126.77 31.8633C128.02 29.8711 129.113 28.4844 130.051 27.7031C130.754 27.1172 131.438 26.7461 132.102 26.5898C132.414 26.5117 132.98 26.3555 133.801 26.1211C134.738 25.8477 136.105 25.9258 137.902 26.3555C138.762 26.5508 139.543 26.8047 140.246 27.1172C141.105 27.5078 141.965 28.1523 142.824 29.0508C143.215 29.4414 143.449 29.793 143.527 30.1055C143.645 30.457 143.84 30.9258 144.113 31.5117C144.426 32.1758 144.621 32.625 144.699 32.8594C145.051 33.7969 145.07 34.793 144.758 35.8477C144.289 37.5273 143.84 38.7188 143.41 39.4219C143.332 39.5781 143.195 39.7539 143 39.9492C142.805 40.1445 142.668 40.2812 142.59 40.3594C141.809 41.375 141.32 41.9805 141.125 42.1758C140.422 42.7617 139.777 42.9766 139.191 42.8203C138.488 42.5859 138.273 42.1562 138.547 41.5312C139.016 40.5547 139.504 39.3242 140.012 37.8398C140.09 37.6445 140.402 36.2969 140.949 33.7969C140.988 33.6797 140.988 33.4844 140.949 33.2109C140.949 32.8203 140.734 32.625 140.305 32.625C139.484 32.625 138.781 32.957 138.195 33.6211C137.336 34.5977 136.789 35.3789 136.555 35.9648C136.203 36.707 136.066 37.6445 136.145 38.7773C136.184 39.4414 136.203 39.8516 136.203 40.0078C136.164 40.2422 136.164 40.457 136.203 40.6523C136.32 41.082 136.457 41.6484 136.613 42.3516C136.809 43.1328 136.945 43.6797 137.023 43.9922C137.531 46.1016 138.82 48.4062 140.891 50.9062C141.281 51.4141 141.789 52.0977 142.414 52.957C143.156 53.9727 149.211 50.3398 160.578 42.0586C161.555 42.5664 162.023 43.1328 161.984 43.7578C161.945 44.1875 161.594 44.6367 160.93 45.1055C161.281 44.8711 155.871 48.3672 144.699 55.5938C144.387 55.75 144.328 55.9844 144.523 56.2969C145.344 57.6641 145.949 58.8164 146.34 59.7539C147.277 61.9414 147.805 63.5039 147.922 64.4414C148 65.418 147.863 66.4531 147.512 67.5469C147.59 67.3906 147.59 67.6836 147.512 68.4258C147.473 68.7773 147.238 69.6562 146.809 71.0625C146.535 71.9609 146.398 72.3516 146.398 72.2344C146.359 72.5859 146.184 72.8789 145.871 73.1133C145.676 73.2305 145.402 73.582 145.051 74.168C144.074 75.8867 143.332 77.3711 142.824 78.6211C142.121 80.2617 141.848 80.9648 142.004 80.7305C141.965 80.6523 141.965 80.5156 142.004 80.3203ZM217.883 16.3945C218.898 15.2617 220.09 13.6797 221.457 11.6484C222.668 9.89062 222.824 8.05469 221.926 6.14062C221.73 5.67188 221.457 5.57422 221.105 5.84766C219.426 7.01953 218.703 7.48828 218.938 7.25391C218.82 7.37109 218.625 7.58594 218.352 7.89844C218.117 8.13281 217.941 8.32812 217.824 8.48438C216.965 9.26562 216.477 10.2617 216.359 11.4727C216.32 11.5898 216.32 11.8633 216.359 12.293C216.398 12.6055 216.398 12.8594 216.359 13.0547C216.242 13.3672 216.105 14.4219 215.949 16.2188C215.832 17.3906 215.832 18.1719 215.949 18.5625C216.105 18.4453 216.75 17.7227 217.883 16.3945ZM211.203 50.0273C210.852 50.418 210.48 50.9844 210.09 51.7266C209.582 52.625 209.25 53.2109 209.094 53.4844C208.391 54.5 207.941 55.2227 207.746 55.6523C206.535 58.2695 205.969 59.4805 206.047 59.2852C206.008 59.4023 205.91 59.5977 205.754 59.8711C205.637 60.0664 205.559 60.2422 205.52 60.3984C205.48 60.4766 205.188 61.375 204.641 63.0938C204.016 65.0859 203.664 66.4531 203.586 67.1953C203.547 67.3906 203.527 67.5078 203.527 67.5469C203.332 67.8984 203.176 68.7188 203.059 70.0078C202.863 71.9219 202.766 73.5039 202.766 74.7539C202.766 75.5352 202.824 76.1602 202.941 76.6289C203.059 77.0195 203.098 77.4492 203.059 77.918C203.059 78.8555 203.254 79.5586 203.645 80.0273C204.27 80.7695 205.129 81.1992 206.223 81.3164C207.355 81.4336 208.312 81.1992 209.094 80.6133C209.914 79.9883 210.812 79.1484 211.789 78.0938C213.234 76.5312 214.484 75.0664 215.539 73.6992C216.984 71.7461 217.824 70.5742 218.059 70.1836C218.254 69.793 218.586 69.2461 219.055 68.543C219.523 67.8008 219.875 67.2539 220.109 66.9023C220.383 66.3945 220.383 65.9062 220.109 65.4375C219.25 63.9141 218.605 62.7227 218.176 61.8633C216.887 59.2852 215.383 55.418 213.664 50.2617C213.625 50.1836 213.391 49.4219 212.961 47.9766C212.961 47.9766 212.375 48.6602 211.203 50.0273ZM221.984 73.5234C220.852 74.9688 219.113 76.9609 216.77 79.5C214.973 81.375 213.078 83.1328 211.086 84.7734C210.266 85.4766 209.094 86.1992 207.57 86.9414C205.578 87.8789 203.586 88.2891 201.594 88.1719C200.656 88.0938 199.836 87.918 199.133 87.6445C196.477 86.6289 194.152 85.0078 192.16 82.7812C190.91 81.375 189.914 79.6562 189.172 77.625C187.844 74.1094 187.355 70.1641 187.707 65.7891C188.176 60.3594 189.758 54.8906 192.453 49.3828C194.562 45.0469 197.473 40.457 201.184 35.6133C202.59 33.7773 204.855 31.0039 207.98 27.293C208.254 26.9805 208.371 26.6289 208.332 26.2383C208.059 22.2539 208.312 18.7578 209.094 15.75C209.914 12.7031 210.656 10.418 211.32 8.89453C212.023 7.25391 213.02 5.90625 214.309 4.85156C215.832 3.60156 217.434 2.72266 219.113 2.21484C219.621 2.05859 220.227 2.09766 220.93 2.33203C221.281 2.44922 221.77 2.58594 222.395 2.74219C223.098 2.89844 223.605 3.03516 223.918 3.15234C227.043 4.12891 229.309 6.375 230.715 9.89062C230.441 9.22656 230.812 10.6328 231.828 14.1094C231.906 14.3438 231.926 14.8906 231.887 15.75C231.77 17.8203 231.574 19.3047 231.301 20.2031C231.066 20.9844 230.656 22.0195 230.07 23.3086C230.07 23.2695 229.465 24.3242 228.254 26.4727C227.98 26.9414 227.609 27.5078 227.141 28.1719C226.516 29.0312 226.125 29.5781 225.969 29.8125C225.852 30.0078 225.637 30.3594 225.324 30.8672C225.09 31.2578 224.895 31.5703 224.738 31.8047C224.074 32.8203 223.527 33.582 223.098 34.0898C221.926 35.4961 220.734 37.0781 219.523 38.8359C219.562 38.7969 219.289 39.1094 218.703 39.7734C218.391 40.1641 218.312 40.5938 218.469 41.0625C218.664 41.6094 219.523 44.2266 221.047 48.9141C221.281 49.7344 221.789 51.2188 222.57 53.3672C223.273 55.2031 223.781 56.6875 224.094 57.8203C224.172 58.2109 224.289 58.4844 224.445 58.6406C224.562 58.6406 224.68 58.543 224.797 58.3477C226.242 55.8086 227.023 54.4219 227.141 54.1875C226.906 54.6562 227.277 54.0117 228.254 52.2539C228.645 51.4727 228.43 51.0625 227.609 51.0234C226.555 50.9453 225.656 50.6328 224.914 50.0859C223.078 48.875 221.926 47.3516 221.457 45.5156C221.34 45.0078 221.281 44.7539 221.281 44.7539C221.242 44.1289 221.32 43.6797 221.516 43.4062C221.555 43.3281 221.789 42.8008 222.219 41.8242C222.375 41.4727 222.492 41.2188 222.57 41.0625C223.078 40.0469 223.957 39.5781 225.207 39.6562C227.277 39.8125 229.562 39.7539 232.062 39.4805C233.547 39.2852 234.699 39.1875 235.52 39.1875C236.027 39.2266 236.301 39.2266 236.34 39.1875C236.613 39.1094 237.648 39.207 239.445 39.4805C239.953 39.5586 240.383 39.9102 240.734 40.5352C240.969 40.9648 241.398 41.5898 242.023 42.4102C242.766 43.3086 242.961 44.3242 242.609 45.457C242.531 45.6523 242.434 46.0234 242.316 46.5703C242.16 47.0781 242.043 47.4688 241.965 47.7422C241.652 48.6406 241.105 49.3828 240.324 49.9688C239.973 50.2031 239.738 50.418 239.621 50.6133C239.504 50.8867 239.211 51.1406 238.742 51.375C237.258 52.0391 236.125 52.4883 235.344 52.7227C235.031 52.8008 234.777 53.0156 234.582 53.3672C231.496 58.6406 229.816 61.5117 229.543 61.9805C228.684 63.582 228.176 64.4609 228.02 64.6172C227.746 64.9688 227.727 65.3789 227.961 65.8477C230.031 70.1445 231.926 73.4648 233.645 75.8086C233.879 76.1211 234.367 76.8242 235.109 77.918C235.695 78.8164 236.203 79.5195 236.633 80.0273C236.711 80.1055 237.746 80.9844 239.738 82.6641C239.895 82.8203 240.227 82.8984 240.734 82.8984C241.281 82.9375 241.809 83.0742 242.316 83.3086C242.746 83.5039 242.785 83.7578 242.434 84.0703C241.887 84.5391 241.359 84.8125 240.852 84.8906C239.172 85.2422 237.648 85.0859 236.281 84.4219C234.172 83.3672 232.824 82.5859 232.238 82.0781C230.832 80.8281 229.719 79.6953 228.898 78.6797C226.789 76.0234 225.207 73.875 224.152 72.2344C223.957 71.8828 223.762 71.668 223.566 71.5898C222.551 72.8008 222.023 73.4453 221.984 73.5234ZM315.852 61.5703C314.016 62.8594 312.297 64.3828 310.695 66.1406C310.305 66.5703 309.484 67.9375 308.234 70.2422C307.375 71.8047 306.906 73.6016 306.828 75.6328C306.789 76.2969 306.926 77.0195 307.238 77.8008C307.355 78.0352 307.609 78.3477 308 78.7383C308.352 79.1289 308.586 79.4414 308.703 79.6758C308.859 80.0273 309.191 80.2031 309.699 80.2031C310.715 80.1641 311.984 79.9492 313.508 79.5586C314.797 79.207 315.754 78.4258 316.379 77.2148C318.488 72.8398 319.426 68.4844 319.191 64.1484C319.113 62.7422 318.84 61.3164 318.371 59.8711C318.605 59.6758 317.766 60.2422 315.852 61.5703ZM299.211 30.2227C301.477 23.9336 304.816 17.8203 309.23 11.8828C311.262 9.14844 313.684 7.39062 316.496 6.60938C318.605 6.0625 320.734 5.92578 322.883 6.19922C325.266 6.51172 327.082 7.66406 328.332 9.65625C328.879 10.5156 329.289 11.4336 329.562 12.4102C329.523 12.293 329.895 13.1914 330.676 15.1055C331.145 16.3945 331.359 17.9766 331.32 19.8516C331.281 20.7109 331.027 21.9609 330.559 23.6016C330.246 24.6953 330.051 25.75 329.973 26.7656C329.855 28.0937 329.562 29.3633 329.094 30.5742C328.742 31.4727 328.234 32.6055 327.57 33.9727C326.516 36.1211 324.914 38.25 322.766 40.3594C321.438 41.6875 320.93 42.1562 321.242 41.7656C321.164 41.8828 321.027 41.9805 320.832 42.0586C319.816 42.4883 318.723 43.3086 317.551 44.5195C317.434 44.6367 317.238 44.7539 316.965 44.8711C316.652 45.0273 316.438 45.1445 316.32 45.2227C315.852 45.5742 315.812 45.9648 316.203 46.3945C317.531 47.8398 318.703 48.9922 319.719 49.8516C320.109 50.1641 320.969 51.1406 322.297 52.7812C322.609 53.1719 322.98 53.2695 323.41 53.0742C325.363 52.0586 327.375 51.2188 329.445 50.5547C331.633 49.8906 333.781 49.4805 335.891 49.3242C337.258 49.2461 338.977 49.4609 341.047 49.9688C341.555 50.0859 342.375 50.5938 343.508 51.4922C343.781 51.6875 343.879 51.8438 343.801 51.9609C343.566 52.3516 343.703 52.7617 344.211 53.1914C343.938 53.3477 343.586 53.3477 343.156 53.1914C342.297 52.8789 341.633 52.918 341.164 53.3086C341.125 53.3477 340.637 53.3867 339.699 53.4258C339.582 53.4258 339.504 53.3672 339.465 53.25C339.387 52.8203 338.879 52.5664 337.941 52.4883C336.691 52.332 335.266 52.4688 333.664 52.8984C331.398 53.4844 328.957 54.4414 326.34 55.7695C326.262 55.8086 326.008 55.9648 325.578 56.2383C325.305 56.4336 325.246 56.668 325.402 56.9414C325.441 57.0195 326.105 58.582 327.395 61.6289C328.449 64.168 328.977 66.9609 328.977 70.0078C328.977 72.7812 328.664 75.3398 328.039 77.6836C327.414 79.9492 326.535 81.9414 325.402 83.6602C324.582 84.9883 323.332 86.082 321.652 86.9414C321.496 87.0195 321.301 87.0195 321.066 86.9414C319.777 86.5508 318.898 86.4141 318.43 86.5312C318.352 86.5703 318.254 86.5508 318.137 86.4727C317.355 86.043 316.359 85.9844 315.148 86.2969C314.484 86.4922 313.938 86.4531 313.508 86.1797C313.352 86.1016 313.156 86.0625 312.922 86.0625C311.867 86.1406 310.91 85.9062 310.051 85.3594C309.074 84.7344 308.098 84.2461 307.121 83.8945C307.668 84.0898 306.672 83.4844 304.133 82.0781C303.977 82 303.801 81.7656 303.605 81.375C303.371 80.9062 303.215 80.6133 303.137 80.4961C302.746 80.0273 302.609 79.4609 302.727 78.7969C302.805 78.4453 302.883 77.8789 302.961 77.0977C303.039 76.3164 303.117 75.7305 303.195 75.3398C303.664 72.6836 304.758 70.1055 306.477 67.6055C309.406 63.2305 312.844 59.6758 316.789 56.9414C317.141 56.707 317.219 56.375 317.023 55.9453C316.125 54.1094 315.246 52.6836 314.387 51.668C312.59 49.5195 310.969 47.9375 309.523 46.9219C309.055 46.6094 308.469 46.082 307.766 45.3398C306.477 44.0508 306.047 42.3906 306.477 40.3594C306.75 38.9141 307.414 37.7617 308.469 36.9023C309.953 35.6523 311.965 33.4062 314.504 30.1641C316.262 27.8594 317.453 26.0234 318.078 24.6562C319.797 20.7891 320.852 18.1523 321.242 16.7461C321.672 15.3008 321.75 13.8945 321.477 12.5273C321.359 11.9414 321.086 11.375 320.656 10.8281C320.07 10.125 319.328 9.83203 318.43 9.94922C317.258 10.0664 316.262 10.5156 315.441 11.2969C313.332 13.2891 310.91 16.5508 308.176 21.082C307.98 21.3555 307.648 21.8242 307.18 22.4883C306.75 23.1133 306.418 23.6211 306.184 24.0117C304.895 26.2773 303.977 28.5234 303.43 30.75C303.273 31.4922 302.98 32.5664 302.551 33.9727C302.121 35.3789 301.809 36.4336 301.613 37.1367C300.52 41.707 300.012 43.7578 300.09 43.2891C299.777 44.8906 299.465 46.2383 299.152 47.332C298.957 47.918 298.566 50.0469 297.98 53.7188C297.98 53.9141 297.961 54.2852 297.922 54.832C297.922 55.1445 297.941 55.3203 297.98 55.3594C298.254 55.5156 298.352 56.043 298.273 56.9414C298.117 59.207 298.078 60.9844 298.156 62.2734C298.195 62.7031 298.176 63.2695 298.098 63.9727C298.059 64.832 298.039 65.418 298.039 65.7305C298.039 66.5898 297.668 67.6836 296.926 69.0117C296.496 69.7148 296.359 70.418 296.516 71.1211C296.672 71.668 296.672 72.1953 296.516 72.7031C296.438 72.9766 296.457 73.3477 296.574 73.8164C296.691 74.4414 296.789 75.7109 296.867 77.625C296.867 78.2109 296.516 78.5625 295.812 78.6797C295.578 78.7188 294.992 78.8945 294.055 79.207C293.82 79.2852 293.684 79.5195 293.645 79.9102C293.605 80.418 293.195 80.9258 292.414 81.4336C292.219 81.5508 292.023 81.5703 291.828 81.4922C291.438 81.3359 290.93 81.4141 290.305 81.7266C289.875 81.9219 289.211 82.1562 288.312 82.4297C288 82.5078 287.336 82.2539 286.32 81.668C286.164 81.5898 285.793 81.2773 285.207 80.7305C284.738 80.3008 284.445 79.793 284.328 79.207C283.039 71.9414 282.395 68.3672 282.395 68.4844C282.512 69.1484 282.434 67.8398 282.16 64.5586C281.77 60.0664 281.496 53.8945 281.34 46.043C281.34 45.9648 281.457 42.4102 281.691 35.3789C281.887 28.3867 281.984 25.3594 281.984 26.2969C281.984 23.7188 282.062 19.9883 282.219 15.1055C282.297 11.9414 282.121 9.30469 281.691 7.19531C281.457 6.02344 281.223 5.22266 280.988 4.79297C280.871 4.59766 280.891 4.38281 281.047 4.14844C281.359 3.67969 281.496 3.13281 281.457 2.50781C281.418 2.15625 281.672 1.78516 282.219 1.39453C282.531 1.16016 283.02 1.00391 283.684 0.925781C284.348 0.847656 284.836 0.710937 285.148 0.515625C285.227 0.476562 285.383 0.476562 285.617 0.515625C286.438 0.75 287.102 0.867188 287.609 0.867188C287.961 0.828125 288.312 0.984375 288.664 1.33594C289.836 2.46875 291.027 3.21094 292.238 3.5625C292.59 3.67969 292.98 3.93359 293.41 4.32422C293.645 4.51953 294.016 4.85156 294.523 5.32031C294.992 5.78906 295.363 6.14062 295.637 6.375C296.105 6.80469 296.398 7.15625 296.516 7.42969C296.594 7.625 296.77 7.82031 297.043 8.01562C297.121 8.09375 297.219 8.19141 297.336 8.30859C297.492 8.42578 297.59 8.50391 297.629 8.54297C298.801 9.44141 299.367 10.6719 299.328 12.2344C299.289 12.7422 299.289 13.0547 299.328 13.1719C299.406 13.4062 299.387 14.5586 299.27 16.6289C299.27 16.5898 299.191 17.2539 299.035 18.6211C298.996 19.3242 298.938 19.793 298.859 20.0273C298.625 21.0039 298.527 21.7266 298.566 22.1953C298.605 22.5859 298.547 22.9766 298.391 23.3672C298.078 24.1094 297.844 25.7305 297.688 28.2305C297.414 31.9414 297.277 33.7383 297.277 33.6211C297.277 33.6602 297.297 34.0312 297.336 34.7344C297.258 34.6953 297.336 34.7148 297.57 34.793C298.664 31.8242 299.211 30.3008 299.211 30.2227ZM351.242 64.9688C352.688 62.7422 353.762 60.6133 354.465 58.582C354.855 57.4102 355.305 55.4961 355.812 52.8398C356.398 49.6758 356.555 46.9805 356.281 44.7539C356.203 44.0508 356.086 43.582 355.93 43.3477C354.797 44.4023 353.996 45.457 353.527 46.5117C352.277 49.4414 351.438 52.2734 351.008 55.0078C350.578 57.8984 350.5 60.3984 350.773 62.5078L351.008 65.0859C351.164 65.0078 351.242 64.9688 351.242 64.9688ZM335.949 52.4883C336.809 48.3086 337.316 46.0234 337.473 45.6328C338.293 43.6016 339.191 42.1562 340.168 41.2969C340.207 41.2578 340.344 41.0625 340.578 40.7109C341.32 39.4609 342.316 38.6211 343.566 38.1914C347.004 36.9805 350.227 36.5703 353.234 36.9609C354.094 37.0781 354.973 37.3711 355.871 37.8398C356.613 38.2305 357.043 38.7578 357.16 39.4219C357.199 39.8906 357.453 40.125 357.922 40.125C358.703 40.2031 359.387 40.6328 359.973 41.4141C360.246 41.7266 360.422 41.9023 360.5 41.9414C360.93 42.1758 361.203 42.7031 361.32 43.5234C361.555 45.2031 361.438 46.6094 360.969 47.7422C360.891 47.8984 360.617 49.0117 360.148 51.082C359.836 52.3711 359.367 53.9336 358.742 55.7695C358.898 55.3398 358.586 55.9648 357.805 57.6445C357.531 58.1914 357.258 58.9336 356.984 59.8711C356.633 60.9648 356.379 61.707 356.223 62.0977C356.105 62.332 355.52 63.4258 354.465 65.3789C352.941 68.0742 352.082 69.8516 351.887 70.7109C351.887 70.6328 351.887 70.9844 351.887 71.7656C351.926 73.8359 352.727 76.0039 354.289 78.2695C355.422 79.9102 356.125 80.8867 356.398 81.1992C356.594 81.4336 356.73 81.5898 356.809 81.668C357.668 82.4102 358.488 82.3906 359.27 81.6094C362.082 78.6797 365.969 71.4141 370.93 59.8125C372.453 56.2188 374.016 52.332 375.617 48.1523C377.141 44.2852 377.824 42.5078 377.668 42.8203C378.02 42.0781 378.41 41.6875 378.84 41.6484C380.168 41.6094 380.754 41.9023 380.598 42.5273C376.145 59.2461 369.777 73.6211 361.496 85.6523C361.496 85.6914 360.656 86.4336 358.977 87.8789C358.352 88.4258 357.336 88.875 355.93 89.2266C355.656 89.3047 354.934 89.4023 353.762 89.5195C352.707 89.6367 351.711 89.5 350.773 89.1094C348.742 88.2109 346.945 86.9805 345.383 85.418C342.609 82.6836 340.344 79.5781 338.586 76.1016C337.57 74.1484 336.789 71.5703 336.242 68.3672C336.008 66.9219 335.793 63.9727 335.598 59.5195C335.832 54.8711 335.949 52.5273 335.949 52.4883ZM416.75 81.9609C418.742 81.8828 420.617 81.0234 422.375 79.3828C423.273 78.5234 424.484 76.8047 426.008 74.2266C427.375 71.9219 431.301 60.8672 437.785 41.0625C438.566 38.6406 439.348 38.0742 440.129 39.3633C440.91 40.6133 441.164 41.7461 440.891 42.7617C435.227 63.1133 430.637 75.8477 427.121 80.9648C426.066 82.4492 424.094 83.9141 421.203 85.3594C418.82 86.4922 416.281 87.0391 413.586 87C410.539 86.9219 408.137 86.043 406.379 84.3633C403.527 81.5898 401.613 78.1719 400.637 74.1094C400.051 71.5703 399.582 69.3438 399.23 67.4297C398.84 65.3984 398.566 62.5469 398.41 58.875C398.254 55.7891 398.195 53.6797 398.234 52.5469C398.273 52.2344 398.234 52 398.117 51.8438C397.766 52.1562 397.57 52.4297 397.531 52.6641C397.453 53.2891 397.062 54.2852 396.359 55.6523C395.578 57.2148 394.973 58.4844 394.543 59.4609C393.996 60.7109 393.723 61.6484 393.723 62.2734C393.723 62.4297 393.625 62.7422 393.43 63.2109C393.117 63.875 393.078 64.3438 393.312 64.6172C393.391 64.6953 393.312 64.9492 393.078 65.3789C392.922 65.8086 392.668 66.375 392.316 67.0781C391.965 67.8984 391.711 68.4648 391.555 68.7773C391.398 69.0898 391.32 69.3047 391.32 69.4219C391.32 70.4766 391.125 71.2773 390.734 71.8242C390.578 72.0195 390.539 72.1953 390.617 72.3516C390.773 72.625 389.953 73.6016 388.156 75.2812C386.359 76.9609 385.148 77.8594 384.523 77.9766C384.289 78.0156 384.016 78.1523 383.703 78.3867C383.312 78.6602 383.039 78.8359 382.883 78.9141C381.32 79.5391 380.324 79.8125 379.895 79.7344C379.777 79.7344 379.602 79.7734 379.367 79.8516C379.094 79.9297 378.898 79.9688 378.781 79.9688C376.75 79.8125 375.363 79.5391 374.621 79.1484C373.527 78.6016 372.648 77.625 371.984 76.2188C371.047 74.3047 370.324 71.9219 369.816 69.0703C369.035 64.5391 368.977 59.8516 369.641 55.0078C370.227 50.6719 371.066 47.0391 372.16 44.1094C372.863 42.2734 373.918 40.5156 375.324 38.8359C375.598 38.5234 375.93 38.2695 376.32 38.0742C377.727 37.4492 379.074 37.0781 380.363 36.9609C382.434 36.8047 383.391 36.7461 383.234 36.7852C384.445 36.5508 385.93 36.5312 387.688 36.7266C390.891 37.0781 392.941 37.3711 393.84 37.6055C394.309 37.7227 394.758 37.957 395.188 38.3086C395.734 38.7383 396.633 39.3633 397.883 40.1836C398.234 40.457 398.332 40.7891 398.176 41.1797C397.941 41.8438 397.355 42.3906 396.418 42.8203C395.441 43.2891 394.445 43.5039 393.43 43.4648C392.414 43.4258 391.477 43.7773 390.617 44.5195C389.719 45.3008 388.84 46.6484 387.98 48.5625C387.395 49.8906 387.023 50.7695 386.867 51.1992C386.125 53.1523 385.695 54.5977 385.578 55.5352C385.461 56.7461 385.305 57.5273 385.109 57.8789C385.031 57.9961 385.012 58.1914 385.051 58.4648C385.051 58.8164 385.031 59.0703 384.992 59.2266C384.992 59.3438 384.855 61.8047 384.582 66.6094C384.582 66.8828 384.602 67.1562 384.641 67.4297C384.719 67.8594 384.816 68.0742 384.934 68.0742C385.09 68.1133 385.305 67.9961 385.578 67.7227C386.086 67.1758 386.613 66.375 387.16 65.3203C388.918 61.8047 391.32 57.2734 394.367 51.7266C395.734 49.2266 397.141 47.0195 398.586 45.1055C398.82 44.8711 399.055 44.6953 399.289 44.5781C401.203 43.8359 402.082 43.4844 401.926 43.5234C402.238 43.4453 402.453 43.4062 402.57 43.4062C405.383 43.5625 407.609 44.0703 409.25 44.9297C409.836 45.2422 410.266 45.5352 410.539 45.8086C411.164 46.3945 411.398 46.9805 411.242 47.5664C411.086 47.918 411.086 48.3477 411.242 48.8555C411.32 49.3242 411.457 50.8477 411.652 53.4258C411.652 53.6602 411.633 53.8555 411.594 54.0117C411.398 54.3633 411.379 54.832 411.535 55.418C411.613 55.6914 411.652 56.0234 411.652 56.4141C411.574 59.8906 411.457 62.2344 411.301 63.4453C411.223 64.0703 411.281 65.2617 411.477 67.0195C411.555 67.6836 411.711 68.7188 411.945 70.125C412.141 71.4922 412.277 72.5273 412.355 73.2305C412.434 73.8945 412.59 74.9297 412.824 76.3359C413.059 77.6641 413.195 78.6992 413.234 79.4414C413.312 80.6523 414.035 81.4336 415.402 81.7852C415.832 81.9023 416.281 81.9609 416.75 81.9609ZM446.75 51.9609C447.375 51.1797 447.805 50.5156 448.039 49.9688C448.781 48.3672 449.562 46.8828 450.383 45.5156C451.32 43.9141 452.18 42.5859 452.961 41.5312C453.156 41.2578 453.43 40.8281 453.781 40.2422C454.172 39.6562 454.465 39.2266 454.66 38.9531C455.012 38.4453 455.754 37.5664 456.887 36.3164C457.746 35.3008 458.195 34.7734 458.234 34.7344C459.25 33.6406 460.715 32.4883 462.629 31.2773C463.41 30.8086 464.68 30.5547 466.438 30.5156C467.102 30.5156 467.355 30.5352 467.199 30.5742C467.863 30.457 468.684 30.6328 469.66 31.1016C470.246 31.4141 470.812 32.0391 471.359 32.9766C471.711 33.6016 471.809 33.7969 471.652 33.5625C472.668 35.2812 473.215 36.7852 473.293 38.0742C473.293 38.1914 473.332 38.3867 473.41 38.6602C473.527 38.9336 473.586 39.1289 473.586 39.2461C473.703 39.8711 473.742 40.4961 473.703 41.1211C473.703 41.4336 473.723 41.668 473.762 41.8242C473.918 42.6445 473.898 43.6211 473.703 44.7539C473.195 47.5664 472.746 49.793 472.355 51.4336C470.91 57.2539 470.188 60.1836 470.188 60.2227C470.109 60.4961 469.934 61.1016 469.66 62.0391C469.426 62.7812 469.27 63.3867 469.191 63.8555C469.191 64.0508 469.152 64.168 469.074 64.207C468.918 64.3242 468.762 64.6953 468.605 65.3203C468.098 67.5469 467.844 68.6797 467.844 68.7188C467.766 68.7969 467.727 68.9727 467.727 69.2461C467.727 69.6367 467.727 69.8711 467.727 69.9492C467.414 70.8477 467.512 72.1758 468.02 73.9336C468.371 75.1836 469.152 75.7891 470.363 75.75C470.598 75.75 470.891 75.5938 471.242 75.2812C472.258 74.4219 473.078 73.6992 473.703 73.1133C474.133 72.7227 474.992 71.668 476.281 69.9492C477.219 68.6211 478.449 66.5508 479.973 63.7383C480.285 63.0742 480.832 62.3125 481.613 61.4531C482.551 60.3594 483.137 59.6562 483.371 59.3438C483.41 59.2656 484.582 57.2148 486.887 53.1914C488.918 49.5977 490.246 47.5469 490.871 47.0391C491.027 46.9219 491.32 47.1172 491.75 47.625C492.18 48.0938 492.375 48.4062 492.336 48.5625C492.102 51.9219 488.059 59.3438 480.207 70.8281C479.66 71.6094 478.273 73.3281 476.047 75.9844C474.836 77.4297 473.625 78.4648 472.414 79.0898C470.93 79.9102 469.895 80.3984 469.309 80.5547C468.02 80.9453 466.652 80.8867 465.207 80.3789C463.41 79.7539 461.75 78.5039 460.227 76.6289C458.898 75.0273 457.98 72.8789 457.473 70.1836C456.848 66.8633 456.77 63.3281 457.238 59.5781C457.668 56.5312 458.254 53.7383 458.996 51.1992C459.504 49.4414 460.266 47.1562 461.281 44.3438C461.32 44.2266 462.297 41.7656 464.211 36.9609C464.562 36.0625 464.816 35.1641 464.973 34.2656C465.012 34.1094 465.031 33.9336 465.031 33.7383C465.031 33.3477 464.855 33.2109 464.504 33.3281C463.84 33.4844 463.293 33.6992 462.863 33.9727C461.574 34.7539 459.992 36.1406 458.117 38.1328C457.258 39.0703 456.496 40.0664 455.832 41.1211C454.582 43.1133 453.82 44.4023 453.547 44.9883C451.906 48.3867 450.852 50.8281 450.383 52.3125C449.602 54.7734 448.43 57.6641 446.867 60.9844C446.75 61.2578 446.633 61.6094 446.516 62.0391C446.477 62.1562 446.047 63.4453 445.227 65.9062C444.484 68.0547 444.094 69.2461 444.055 69.4805C443.938 69.832 443.82 70.0469 443.703 70.125C443.312 70.3984 443.117 70.7695 443.117 71.2383C443.117 71.043 442.941 71.5703 442.59 72.8203C442.512 73.0156 442.434 73.1133 442.355 73.1133C442.121 73.1523 441.828 73.4258 441.477 73.9336C441.281 74.207 440.598 74.7344 439.426 75.5156C439.035 75.75 438.605 75.7109 438.137 75.3984C437.629 75.0469 437.18 74.7148 436.789 74.4023C436.164 73.9336 435.695 73.2109 435.383 72.2344C434.602 70.0859 434.133 68.0547 433.977 66.1406C433.742 63.9141 433.586 61.668 433.508 59.4023C433.352 56.5898 433.352 54.1289 433.508 52.0195C433.508 51.668 433.508 51.1602 433.508 50.4961C433.547 49.7539 433.566 49.2656 433.566 49.0312C433.645 47.0391 433.762 45.1641 433.918 43.4062C433.996 42.5469 434.133 41.4141 434.328 40.0078C434.562 38.2109 434.719 37.0586 434.797 36.5508C434.758 36.7852 434.816 35.9258 434.973 33.9727C435.09 32.4492 435.285 31.0234 435.559 29.6953C435.676 29.1094 435.734 28.3281 435.734 27.3516C435.695 27.0391 435.754 26.6484 435.91 26.1797C436.105 25.4766 436.594 25.1836 437.375 25.3008C437.805 25.3789 438.137 25.3789 438.371 25.3008C438.488 25.2617 438.605 25.2617 438.723 25.3008C438.996 25.418 439.465 25.5352 440.129 25.6523C440.754 25.7695 441.223 25.8867 441.535 26.0039C441.965 26.1992 442.434 26.5117 442.941 26.9414C444.27 27.9961 445.402 29.3047 446.34 30.8672C446.887 31.7656 447.219 32.5273 447.336 33.1523C447.531 33.9336 447.551 34.5977 447.395 35.1445C447.316 35.3398 447.297 35.5156 447.336 35.6719C447.453 36.8438 447.473 38.4062 447.395 40.3594C447.355 41.1406 447.277 41.9805 447.16 42.8789C447.121 43.3477 447.102 44.0312 447.102 44.9297C447.062 45.8672 447.023 46.5312 446.984 46.9219C446.945 47.3906 446.906 48.1523 446.867 49.207C446.867 50.2227 446.828 51.0039 446.75 51.5508V51.9609ZM495.207 67.7227C494.855 68.3867 494.68 68.7383 494.68 68.7773C494.133 69.6758 493.254 71.8633 492.043 75.3398C491.926 75.7695 491.848 76.3555 491.809 77.0977C491.809 77.8398 491.789 78.3477 491.75 78.6211C491.516 79.6367 491.457 80.7109 491.574 81.8438C491.574 82.3125 491.789 82.5273 492.219 82.4883C492.648 82.4492 493.098 82.3906 493.566 82.3125C494.855 82.0781 495.578 81.2969 495.734 79.9688C495.734 79.9297 495.734 79.7344 495.734 79.3828C495.734 80.2812 495.656 76.9414 495.5 69.3633C495.5 69.3242 495.461 68.7773 495.383 67.7227C495.656 67.7617 495.598 67.7617 495.207 67.7227ZM504.816 80.3203C504.855 80.1641 504.816 80.0664 504.699 80.0273C504.699 79.9883 504.523 80.1445 504.172 80.4961C503.938 80.7305 503.547 81.4531 503 82.6641C502.922 82.8984 502.707 83.1914 502.355 83.543C502.043 83.8945 501.828 84.1875 501.711 84.4219C501.789 84.1484 501.945 83.7578 502.18 83.25C502.375 82.7422 502.512 82.3516 502.59 82.0781C502.395 81.9609 502.238 82 502.121 82.1953C501.379 83.1719 500.676 83.8359 500.012 84.1875C499.934 84.2656 499.875 84.3242 499.836 84.3633C499.836 84.4023 499.23 84.8906 498.02 85.8281C497.707 86.0234 497.355 86.082 496.965 86.0039C496.418 85.8867 495.812 85.9648 495.148 86.2383C494.758 86.3945 494.211 86.4531 493.508 86.4141C493.039 86.375 492.199 86.043 490.988 85.418C490.051 84.9102 489.484 83.9922 489.289 82.6641C489.016 80.6328 488.996 78.6211 489.23 76.6289C489.582 73.1133 490.539 69.9688 492.102 67.1953C492.922 65.7109 493.703 64.5 494.445 63.5625C494.758 63.1328 494.855 62.6641 494.738 62.1562C494.113 59.5781 493.215 56.9805 492.043 54.3633C491.809 53.7773 491.184 52.4102 490.168 50.2617C488.801 47.293 487.961 44.5391 487.648 42C487.219 38.0547 487.863 34.6758 489.582 31.8633C490.832 29.8711 491.926 28.4844 492.863 27.7031C493.566 27.1172 494.25 26.7461 494.914 26.5898C495.227 26.5117 495.793 26.3555 496.613 26.1211C497.551 25.8477 498.918 25.9258 500.715 26.3555C501.574 26.5508 502.355 26.8047 503.059 27.1172C503.918 27.5078 504.777 28.1523 505.637 29.0508C506.027 29.4414 506.262 29.793 506.34 30.1055C506.457 30.457 506.652 30.9258 506.926 31.5117C507.238 32.1758 507.434 32.625 507.512 32.8594C507.863 33.7969 507.883 34.793 507.57 35.8477C507.102 37.5273 506.652 38.7188 506.223 39.4219C506.145 39.5781 506.008 39.7539 505.812 39.9492C505.617 40.1445 505.48 40.2812 505.402 40.3594C504.621 41.375 504.133 41.9805 503.938 42.1758C503.234 42.7617 502.59 42.9766 502.004 42.8203C501.301 42.5859 501.086 42.1562 501.359 41.5312C501.828 40.5547 502.316 39.3242 502.824 37.8398C502.902 37.6445 503.215 36.2969 503.762 33.7969C503.801 33.6797 503.801 33.4844 503.762 33.2109C503.762 32.8203 503.547 32.625 503.117 32.625C502.297 32.625 501.594 32.957 501.008 33.6211C500.148 34.5977 499.602 35.3789 499.367 35.9648C499.016 36.707 498.879 37.6445 498.957 38.7773C498.996 39.4414 499.016 39.8516 499.016 40.0078C498.977 40.2422 498.977 40.457 499.016 40.6523C499.133 41.082 499.27 41.6484 499.426 42.3516C499.621 43.1328 499.758 43.6797 499.836 43.9922C500.344 46.1016 501.633 48.4062 503.703 50.9062C504.094 51.4141 504.602 52.0977 505.227 52.957C505.969 53.9727 512.023 50.3398 523.391 42.0586C524.367 42.5664 524.836 43.1328 524.797 43.7578C524.758 44.1875 524.406 44.6367 523.742 45.1055C524.094 44.8711 518.684 48.3672 507.512 55.5938C507.199 55.75 507.141 55.9844 507.336 56.2969C508.156 57.6641 508.762 58.8164 509.152 59.7539C510.09 61.9414 510.617 63.5039 510.734 64.4414C510.812 65.418 510.676 66.4531 510.324 67.5469C510.402 67.3906 510.402 67.6836 510.324 68.4258C510.285 68.7773 510.051 69.6562 509.621 71.0625C509.348 71.9609 509.211 72.3516 509.211 72.2344C509.172 72.5859 508.996 72.8789 508.684 73.1133C508.488 73.2305 508.215 73.582 507.863 74.168C506.887 75.8867 506.145 77.3711 505.637 78.6211C504.934 80.2617 504.66 80.9648 504.816 80.7305C504.777 80.6523 504.777 80.5156 504.816 80.3203Z" fill="white"/>
</svg>
